<?xml version="1.0" encoding="UTF-8"?>
<svg xmlns="http://www.w3.org/2000/svg" xmlns:xlink="http://www.w3.org/1999/xlink" width="33.75pt" height="37.5pt" viewBox="0 0 33.75 37.5" version="1.2">
<defs>
<clipPath id="clip1">
  <path d="M 0.0976562 14 L 33.40625 14 L 33.40625 24 L 0.0976562 24 Z M 0.0976562 14 "/>
</clipPath>
<clipPath id="clip2">
  <path d="M 1 0 L 33 0 L 33 37.007812 L 1 37.007812 Z M 1 0 "/>
</clipPath>
<clipPath id="clip3">
  <path d="M 0.0976562 14 L 33.40625 14 L 33.40625 18 L 0.0976562 18 Z M 0.0976562 14 "/>
</clipPath>
</defs>
<g id="surface1">
<g clip-path="url(#clip1)" clip-rule="nonzero">
<path style=" stroke:none;fill-rule:nonzero;fill:rgb(19.219971%,21.569824%,23.919678%);fill-opacity:1;" d="M 3.652344 16.738281 C 3.652344 12.550781 -1.578125 13.597656 -0.53125 17.78125 C 0.511719 21.964844 2.605469 23.011719 2.605469 23.011719 Z M 30.847656 16.738281 C 30.847656 12.550781 36.078125 13.597656 35.03125 17.78125 C 33.984375 21.964844 31.894531 23.011719 31.894531 23.011719 Z M 30.847656 16.738281 "/>
</g>
<g clip-path="url(#clip2)" clip-rule="nonzero">
<path style=" stroke:none;fill-rule:nonzero;fill:rgb(19.219971%,21.569824%,23.919678%);fill-opacity:1;" d="M 32.574219 22.738281 C 32.574219 34.128906 27.667969 37.472656 17.25 37.472656 C 6.832031 37.472656 1.925781 34.128906 1.925781 22.738281 C 1.925781 11.34375 6.832031 0.335938 17.25 0.335938 C 27.667969 0.335938 32.574219 11.34375 32.574219 22.738281 Z M 32.574219 22.738281 "/>
</g>
<path style=" stroke:none;fill-rule:nonzero;fill:rgb(39.99939%,45.878601%,49.798584%);fill-opacity:1;" d="M 27.257812 24.058594 C 28.816406 19.394531 29.441406 16.410156 26.792969 16.410156 L 7.707031 16.410156 C 5.058594 16.410156 5.683594 19.394531 7.242188 24.058594 C 2.085938 35.777344 16.378906 36.425781 17.25 36.425781 C 18.121094 36.425781 32.210938 35.316406 27.257812 24.058594 Z M 27.257812 24.058594 "/>
<path style=" stroke:none;fill-rule:nonzero;fill:rgb(19.219971%,21.569824%,23.919678%);fill-opacity:1;" d="M 14.113281 18.832031 C 14.113281 19.988281 13.175781 20.925781 12.019531 20.925781 C 10.863281 20.925781 9.925781 19.988281 9.925781 18.832031 C 9.925781 17.675781 10.863281 17.785156 12.019531 17.785156 C 13.175781 17.785156 14.113281 17.675781 14.113281 18.832031 Z M 24.570312 18.832031 C 24.570312 19.988281 23.632812 20.925781 22.480469 20.925781 C 21.324219 20.925781 20.386719 19.988281 20.386719 18.832031 C 20.386719 17.675781 21.324219 17.785156 22.480469 17.785156 C 23.632812 17.785156 24.570312 17.675781 24.570312 18.832031 Z M 24.570312 18.832031 "/>
<path style=" stroke:none;fill-rule:nonzero;fill:rgb(19.219971%,21.569824%,23.919678%);fill-opacity:1;" d="M 16.203125 24.742188 C 16.203125 24.882812 16.164062 25.015625 16.089844 25.144531 C 16.015625 25.273438 15.90625 25.386719 15.765625 25.484375 C 15.625 25.582031 15.464844 25.65625 15.28125 25.710938 C 15.097656 25.761719 14.90625 25.789062 14.710938 25.789062 C 14.511719 25.789062 14.320312 25.761719 14.136719 25.710938 C 13.957031 25.65625 13.792969 25.582031 13.652344 25.484375 C 13.511719 25.386719 13.40625 25.273438 13.328125 25.144531 C 13.253906 25.015625 13.214844 24.882812 13.214844 24.742188 C 13.214844 24.605469 13.253906 24.472656 13.328125 24.34375 C 13.40625 24.214844 13.511719 24.101562 13.652344 24.003906 C 13.792969 23.90625 13.957031 23.832031 14.136719 23.777344 C 14.320312 23.722656 14.511719 23.699219 14.710938 23.699219 C 14.90625 23.699219 15.097656 23.722656 15.28125 23.777344 C 15.464844 23.832031 15.625 23.90625 15.765625 24.003906 C 15.90625 24.101562 16.015625 24.214844 16.089844 24.34375 C 16.164062 24.472656 16.203125 24.605469 16.203125 24.742188 Z M 16.203125 24.742188 "/>
<path style=" stroke:none;fill-rule:nonzero;fill:rgb(19.219971%,21.569824%,23.919678%);fill-opacity:1;" d="M 21.28125 24.742188 C 21.28125 25.324219 20.613281 25.789062 19.789062 25.789062 C 18.964844 25.789062 18.292969 25.324219 18.292969 24.742188 C 18.292969 24.164062 18.964844 23.699219 19.789062 23.699219 C 20.617188 23.699219 21.28125 24.167969 21.28125 24.742188 Z M 21.28125 24.742188 "/>
<path style=" stroke:none;fill-rule:nonzero;fill:rgb(59.999084%,66.668701%,70.979309%);fill-opacity:1;" d="M 20.410156 22.007812 C 18.351562 21.738281 17.25 22.882812 17.25 22.882812 C 17.25 22.882812 16.144531 21.738281 14.089844 22.007812 C 10.789062 22.445312 10.652344 25.445312 12.0625 25.257812 C 12.863281 25.148438 12.203125 24.273438 13.851562 23.628906 C 15.503906 22.984375 17.25 24.320312 17.25 24.320312 C 17.25 24.320312 18.992188 22.984375 20.644531 23.628906 C 22.296875 24.273438 21.636719 25.148438 22.4375 25.257812 C 23.847656 25.445312 23.710938 22.445312 20.410156 22.007812 Z M 20.410156 22.007812 "/>
<path style=" stroke:none;fill-rule:nonzero;fill:rgb(19.219971%,21.569824%,23.919678%);fill-opacity:1;" d="M 24.398438 31.402344 C 23.132812 31.742188 21.046875 32.027344 17.25 32.027344 C 13.453125 32.027344 11.367188 31.742188 10.101562 31.402344 C 6.746094 30.507812 8.089844 29.589844 10.101562 29.859375 C 12.113281 30.128906 13.898438 30.292969 17.25 30.292969 C 20.601562 30.292969 22.390625 30.128906 24.398438 29.859375 C 26.410156 29.589844 27.75 30.507812 24.398438 31.402344 Z M 24.398438 31.402344 "/>
<g clip-path="url(#clip3)" clip-rule="nonzero">
<path style=" stroke:none;fill-rule:nonzero;fill:rgb(39.99939%,45.878601%,49.798584%);fill-opacity:1;" d="M 2.871094 17.390625 C 4.335938 16.109375 1.742188 13.449219 0.574219 14.730469 C 0.214844 15.121094 1.535156 14.53125 1.96875 15.863281 C 2.292969 16.851562 1.972656 18.175781 2.871094 17.390625 Z M 31.628906 17.390625 C 30.160156 16.109375 32.757812 13.449219 33.925781 14.730469 C 34.28125 15.121094 32.960938 14.53125 32.527344 15.863281 C 32.207031 16.851562 32.527344 18.175781 31.628906 17.390625 Z M 31.628906 17.390625 "/>
</g>
</g>
</svg>
